<svg width="30" height="36" viewBox="0 0 30 36" fill="none" xmlns="http://www.w3.org/2000/svg">
<path d="M21.875 8.3125C21.875 8.14062 21.7344 8 21.5625 8H6.5625C6.39062 8 6.25 8.14062 6.25 8.3125V10.1875C6.25 10.3594 6.39062 10.5 6.5625 10.5H21.5625C21.7344 10.5 21.875 10.3594 21.875 10.1875V8.3125ZM21.5625 13.625H6.5625C6.39062 13.625 6.25 13.7656 6.25 13.9375V15.8125C6.25 15.9844 6.39062 16.125 6.5625 16.125H21.5625C21.7344 16.125 21.875 15.9844 21.875 15.8125V13.9375C21.875 13.7656 21.7344 13.625 21.5625 13.625ZM13.75 19.25H6.5625C6.39062 19.25 6.25 19.3906 6.25 19.5625V21.4375C6.25 21.6094 6.39062 21.75 6.5625 21.75H13.75C13.9219 21.75 14.0625 21.6094 14.0625 21.4375V19.5625C14.0625 19.3906 13.9219 19.25 13.75 19.25ZM11.875 31.2812H3.125V3.78125H25V17.2188C25 17.3906 25.1406 17.5312 25.3125 17.5312H27.5C27.6719 17.5312 27.8125 17.3906 27.8125 17.2188V2.21875C27.8125 1.52734 27.2539 0.96875 26.5625 0.96875H1.5625C0.871094 0.96875 0.3125 1.52734 0.3125 2.21875V32.8438C0.3125 33.5352 0.871094 34.0938 1.5625 34.0938H11.875C12.0469 34.0938 12.1875 33.9531 12.1875 33.7812V31.5938C12.1875 31.4219 12.0469 31.2812 11.875 31.2812ZM25.8125 28.375C26.9453 27.3477 27.6562 25.8633 27.6562 24.2109C27.6562 21.1055 25.1367 18.5859 22.0312 18.5859C18.9258 18.5859 16.4062 21.1055 16.4062 24.2109C16.4062 25.8633 17.1172 27.3477 18.25 28.375C16.0234 29.6445 14.4922 31.9961 14.375 34.707C14.3672 34.8828 14.5117 35.0312 14.6875 35.0312H16.5664C16.7305 35.0312 16.8672 34.9023 16.8789 34.7344C17.0312 32.0312 19.2852 29.875 22.0312 29.875C24.7773 29.875 27.0312 32.0312 27.1836 34.7344C27.1914 34.8984 27.3281 35.0312 27.4961 35.0312H29.375C29.5547 35.0312 29.6953 34.8828 29.6875 34.707C29.5742 31.9922 28.0391 29.6445 25.8125 28.375ZM22.0312 21.0859C23.7578 21.0859 25.1562 22.4844 25.1562 24.2109C25.1562 25.9375 23.7578 27.3359 22.0312 27.3359C20.3047 27.3359 18.9062 25.9375 18.9062 24.2109C18.9062 22.4844 20.3047 21.0859 22.0312 21.0859Z" fill="white"/>
</svg>
