<svg width="36" height="36" viewBox="0 0 36 36" fill="none" xmlns="http://www.w3.org/2000/svg">
<path d="M33 19.25V25.5H3V5.5H15.5V3H3C2.33696 3 1.70107 3.26339 1.23223 3.73223C0.763392 4.20107 0.5 4.83696 0.5 5.5V25.5C0.5 26.163 0.763392 26.7989 1.23223 27.2678C1.70107 27.7366 2.33696 28 3 28H13V33H8V35.5H28V33H23V28H33C33.663 28 34.2989 27.7366 34.7678 27.2678C35.2366 26.7989 35.5 26.163 35.5 25.5V19.25H33ZM20.5 33H15.5V28H20.5V33Z" fill="white"/>
<path d="M35.5 10.5V8H32.8738C32.7125 7.21753 32.4019 6.47351 31.9587 5.80875L33.8212 3.94625L32.0538 2.17875L30.1912 4.04125C29.5265 3.59814 28.7825 3.28746 28 3.12625V0.5H25.5V3.12625C24.7175 3.28746 23.9735 3.59814 23.3087 4.04125L21.4462 2.17875L19.6788 3.94625L21.5413 5.80875C21.0981 6.47351 20.7875 7.21753 20.6262 8H18V10.5H20.6262C20.7875 11.2825 21.0981 12.0265 21.5413 12.6912L19.6788 14.5538L21.4462 16.3212L23.3087 14.4587C23.9735 14.9019 24.7175 15.2125 25.5 15.3738V18H28V15.3738C28.7825 15.2125 29.5265 14.9019 30.1912 14.4587L32.0538 16.3212L33.8212 14.5538L31.9587 12.6912C32.4019 12.0265 32.7125 11.2825 32.8738 10.5H35.5ZM26.75 13C26.0083 13 25.2833 12.7801 24.6666 12.368C24.0499 11.956 23.5693 11.3703 23.2855 10.6851C23.0016 9.99984 22.9274 9.24584 23.0721 8.51841C23.2167 7.79098 23.5739 7.1228 24.0983 6.59835C24.6228 6.0739 25.291 5.71675 26.0184 5.57206C26.7458 5.42736 27.4998 5.50162 28.1851 5.78545C28.8703 6.06928 29.456 6.54993 29.868 7.16661C30.2801 7.7833 30.5 8.50832 30.5 9.25C30.499 10.2443 30.1036 11.1975 29.4006 11.9006C28.6975 12.6036 27.7443 12.999 26.75 13Z" fill="white"/>
</svg>
